<?xml version="1.0" encoding="UTF-8"?>
<svg xmlns="http://www.w3.org/2000/svg" xmlns:xlink="http://www.w3.org/1999/xlink" width="80pt" height="80pt" viewBox="0 0 80 80" version="1.1">
<g id="surface1">
<path style=" stroke:none;fill-rule:nonzero;fill:rgb(92.941176%,63.529412%,0%);fill-opacity:1;" d="M 43.347656 2.117188 C 26.847656 2.675781 13.183594 15.183594 10.894531 32.117188 L 1.152344 32.117188 L 15.21875 47.117188 L 29.28125 32.117188 L 20.382812 32.117188 C 22.558594 20.710938 32.039062 12.550781 43.347656 12.117188 C 57.964844 11.550781 71.800781 17.3125 68.160156 32.316406 C 64.515625 47.324219 75.71875 55.546875 77.535156 32.652344 C 79.355469 9.757812 58.089844 1.617188 43.347656 2.117188 Z M 43.347656 2.117188 "/>
<path style=" stroke:none;fill-rule:evenodd;fill:rgb(94.901961%,39.607843%,13.333333%);fill-opacity:1;" d="M 39.230469 76.796875 L 17.351562 57.925781 L 39.230469 39.667969 Z M 39.230469 76.796875 "/>
<path style=" stroke:none;fill-rule:evenodd;fill:rgb(38.431373%,70.980392%,26.27451%);fill-opacity:1;" d="M 47.058594 76.796875 L 68.9375 57.925781 L 47.058594 39.667969 Z M 47.058594 76.796875 "/>
</g>
</svg>
