<?xml version="1.0" encoding="utf-8"?>
<svg width="16" height="16" viewBox="0 0 16 16" version="1.1" xmlns="http://www.w3.org/2000/svg">
  <g id="surface1" style="" transform="matrix(0.937622, 0, 0, 1, 0.230575, -0.164488)">
    <path style="stroke: none; fill-rule: nonzero; fill-opacity: 1; fill: rgb(237, 162, 0);" d="M 9 0.588 C 5.481 0.7 2.566 3.201 2.078 6.588 L 0 6.588 L 3 9.588 L 6 6.588 L 4.102 6.588 C 4.566 4.307 6.588 2.675 9 2.588 C 12.118 2.475 15.07 3.627 14.293 6.628 C 13.516 9.629 15.905 11.274 16.293 6.695 C 16.681 2.116 12.145 0.488 9 0.588 Z"/>
  </g>
  <g fill="none" fill-rule="evenodd" transform="matrix(1.485237, 0, 0, 1.485237, -9.896459, 7.933271)" style="">
    <polygon fill="#F26522" points="11.946 5 9 2.459 11.946 0"/>
    <polygon fill="#62B543" points="13 5 15.946 2.459 13 0"/>
  </g>
</svg>
